# Blender v2.80 (sub 75) OBJ File: ''
# www.blender.org
mtllib diamond2.mtl
o obj_0
v 13.224000 -0.076000 -0.000000
v 12.213000 0.545000 0.000000
v 12.213000 0.545000 1.000000
v 13.224000 -0.076000 1.000000
v -1.360000 -4.871000 0.999999
v 1.556000 -8.208000 0.999999
v 0.893000 1.051000 1.000000
v 2.998000 1.390000 1.000000
v 5.799000 -12.627000 0.999998
v 10.042000 -8.208000 0.999999
v 5.799000 1.515000 1.000000
v -0.615000 0.545000 0.000000
v -1.626000 -0.076000 -0.000000
v -1.626000 -0.076000 1.000000
v -0.615000 0.545000 1.000000
v 8.600000 1.390000 0.000000
v 5.799000 1.515000 0.000000
v 14.189000 -3.072000 -0.000001
v 14.284000 -2.728000 -0.000000
v 14.284000 -2.728000 1.000000
v 14.189000 -3.072000 1.000000
v 2.998000 1.390000 0.000000
v 0.893000 1.051000 0.000000
v -2.686000 -2.728000 1.000000
v -2.686000 -2.728000 -0.000000
v -2.591000 -3.072000 -0.000001
v -2.591000 -3.072000 1.000000
v 10.705000 1.051000 0.000000
v 10.042000 -8.208000 -0.000001
v 12.958000 -4.871000 -0.000001
v 13.920000 -3.559000 -0.000001
v 13.837000 -0.764000 -0.000000
v 14.152000 -1.468000 -0.000000
v 8.600000 1.390000 1.000000
v 13.837000 -0.764000 1.000000
v 14.152000 -1.468000 1.000000
v 1.556000 -8.208000 -0.000001
v 5.799000 -12.627000 -0.000002
v -1.360000 -4.871000 -0.000001
v 10.705000 1.051000 1.000000
v -2.239000 -0.764000 -0.000000
v -2.239000 -0.764000 1.000000
v -2.554000 -1.468000 1.000000
v -2.322000 -3.559000 0.999999
v -2.322000 -3.559000 -0.000001
v -2.554000 -1.468000 -0.000000
v 13.920000 -3.559000 0.999999
v 12.958000 -4.871000 0.999999
vt 0.000000 0.000000
vt 1.000000 0.000000
vt 1.000000 1.000000
vt 1.000000 0.000000
vt 1.000000 1.000000
vt 0.000000 0.000000
vt 1.000000 0.000000
vt 1.000000 1.000000
vt 0.000000 0.000000
vt 1.000000 0.000000
vt 1.000000 1.000000
vt 0.000000 0.000000
vt 1.000000 0.000000
vt 0.000000 0.000000
vt 1.000000 1.000000
vt 0.000000 0.000000
vt 1.000000 0.000000
vt 1.000000 1.000000
vt 1.000000 0.000000
vt 1.000000 1.000000
vt 0.000000 0.000000
vt 1.000000 0.000000
vt 1.000000 1.000000
vt 0.000000 0.000000
vt 1.000000 0.000000
vt 1.000000 1.000000
vt 1.000000 0.000000
vt 1.000000 1.000000
vt 0.000000 0.000000
vt 1.000000 0.000000
vt 1.000000 1.000000
vt 0.000000 0.000000
vt 1.000000 0.000000
vt 1.000000 1.000000
vt 1.000000 0.000000
vt 1.000000 1.000000
vt 1.000000 0.000000
vt 1.000000 1.000000
vt 0.000000 0.000000
vt 1.000000 0.000000
vt 1.000000 1.000000
vt 0.000000 0.000000
vt 1.000000 1.000000
vt 0.000000 0.000000
vt 1.000000 0.000000
vt 0.000000 0.000000
vt 1.000000 0.000000
vt 1.000000 1.000000
vt 1.000000 1.000000
vt 1.000000 0.000000
vt 1.000000 1.000000
vt 0.000000 0.000000
vt 1.000000 0.000000
vt 1.000000 0.000000
vt 1.000000 1.000000
vt 1.000000 0.000000
vt 1.000000 1.000000
vt 0.000000 0.000000
vt 1.000000 0.000000
vt 1.000000 1.000000
vt 1.000000 0.000000
vt 0.000000 0.000000
vt 1.000000 0.000000
vt 1.000000 1.000000
vt 1.000000 0.000000
vt 1.000000 1.000000
vt 0.000000 0.000000
vt 1.000000 1.000000
vt 0.000000 0.000000
vt 1.000000 0.000000
vt 0.000000 0.000000
vt 1.000000 1.000000
vt 0.000000 0.000000
vt 1.000000 0.000000
vt 1.000000 0.000000
vt 1.000000 0.000000
vt 1.000000 1.000000
vt 1.000000 1.000000
vt 1.000000 0.000000
vt 0.000000 0.000000
vt 1.000000 0.000000
vt 1.000000 1.000000
vt 1.000000 0.000000
vt 0.000000 0.000000
vt 1.000000 0.000000
vt 0.000000 0.000000
vt 1.000000 1.000000
vt 1.000000 0.000000
vt 0.000000 0.000000
vt 1.000000 0.000000
vt 0.000000 0.000000
vt 1.000000 0.000000
vt 0.000000 0.000000
vt 1.000000 1.000000
vt 0.000000 0.000000
vt 1.000000 0.000000
vt 0.000000 0.000000
vt 1.000000 0.000000
vt 1.000000 1.000000
vt 0.000000 0.000000
vt 1.000000 1.000000
vt 0.000000 0.000000
vt 1.000000 1.000000
vt 1.000000 0.000000
vt 1.000000 1.000000
vt 1.000000 1.000000
vt 0.000000 0.000000
vt 1.000000 0.000000
vt 0.000000 0.000000
vt 1.000000 1.000000
vt 1.000000 0.000000
vt 0.000000 0.000000
vt 1.000000 0.000000
vt 1.000000 1.000000
vt 0.000000 0.000000
vt 1.000000 1.000000
vt 1.000000 0.000000
vt 0.000000 0.000000
vt 0.000000 0.000000
vt 1.000000 0.000000
vt 0.000000 0.000000
vt 1.000000 0.000000
vt 1.000000 1.000000
vt 0.000000 0.000000
vt 1.000000 1.000000
vt 0.000000 0.000000
vt 0.000000 0.000000
vt 1.000000 0.000000
vt 0.000000 0.000000
vt 1.000000 1.000000
vt 0.000000 0.000000
vt 1.000000 0.000000
vn 0.5234 0.8521 0.0000
vn 0.0000 -0.0000 1.0000
vn -0.5234 0.8521 0.0000
vn 0.0446 0.9990 0.0000
vn 0.9639 -0.2662 0.0000
vn -0.1590 0.9873 0.0000
vn -0.9639 -0.2662 0.0000
vn 0.0000 0.0000 -1.0000
vn 0.9128 0.4084 0.0000
vn -0.7213 -0.6926 0.0000
vn -0.3181 0.9481 0.0000
vn 0.7466 0.6652 0.0000
vn -0.7530 -0.6580 0.0000
vn 0.3181 0.9481 0.0000
vn -0.7466 0.6652 0.0000
vn -0.8064 -0.5913 0.0000
vn 0.9946 0.1042 0.0000
vn -0.8753 -0.4835 -0.0000
vn -0.9128 0.4084 0.0000
vn 0.8064 -0.5913 0.0000
vn 0.1590 0.9873 0.0000
vn -0.0446 0.9990 0.0000
vn 0.7530 -0.6580 0.0000
vn 0.8753 -0.4835 -0.0000
vn 0.7213 -0.6926 0.0000
vn -0.9946 0.1042 0.0000
usemtl Material.001
s off
f 1/1/1 2/2/1 3/3/1
f 1/1/1 3/4/1 4/5/1
f 5/6/2 6/7/2 7/8/2
f 8/9/2 7/10/2 6/11/2
f 9/12/2 10/13/2 6/11/2
f 11/14/2 6/7/2 10/15/2
f 12/16/3 13/17/3 14/18/3
f 12/16/3 14/19/3 15/20/3
f 16/21/4 17/22/4 11/23/4
f 18/24/5 19/25/5 20/26/5
f 18/24/5 20/27/5 21/28/5
f 22/29/6 23/30/6 7/8/6
f 22/29/6 7/10/6 8/31/6
f 24/32/7 25/33/7 26/34/7
f 24/32/7 26/35/7 27/36/7
f 16/21/8 28/37/8 29/38/8
f 30/39/8 29/40/8 28/41/8
f 28/42/8 2/2/8 30/43/8
f 2/44/8 1/45/8 30/43/8
f 31/46/8 30/47/8 1/48/8
f 31/46/8 1/45/8 32/49/8
f 31/46/8 32/50/8 33/51/8
f 19/52/8 18/53/8 33/51/8
f 31/46/8 33/54/8 18/55/8
f 16/21/4 11/56/4 34/57/4
f 32/58/9 35/59/9 36/60/9
f 32/58/9 36/61/9 33/51/9
f 6/62/10 37/63/10 38/64/10
f 6/62/10 38/65/10 9/66/10
f 39/67/8 23/30/8 37/68/8
f 23/69/8 22/70/8 37/68/8
f 22/29/8 17/22/8 37/68/8
f 29/71/8 37/63/8 17/72/8
f 16/21/8 29/40/8 17/72/8
f 38/73/8 37/63/8 29/38/8
f 23/69/11 12/74/11 15/20/11
f 23/69/11 15/75/11 7/8/11
f 1/1/12 4/76/12 35/77/12
f 1/1/12 35/59/12 32/49/12
f 39/67/13 37/63/13 6/11/13
f 2/44/14 28/37/14 40/78/14
f 2/44/14 40/79/14 3/3/14
f 13/80/15 41/81/15 42/82/15
f 13/80/15 42/83/15 14/18/15
f 43/84/2 24/85/2 42/82/2
f 14/86/2 42/83/2 24/87/2
f 24/32/2 27/88/2 14/18/2
f 27/89/2 44/90/2 14/18/2
f 44/91/2 5/92/2 14/18/2
f 15/93/2 14/19/2 5/94/2
f 7/95/2 15/75/2 5/94/2
f 11/14/2 8/96/2 6/11/2
f 45/97/16 39/98/16 5/94/16
f 45/97/16 5/92/16 44/99/16
f 26/100/8 25/33/8 46/101/8
f 41/102/8 13/17/8 45/103/8
f 39/67/8 45/104/8 13/105/8
f 12/16/8 39/98/8 13/105/8
f 23/69/8 39/98/8 12/106/8
f 46/107/8 41/81/8 45/103/8
f 26/100/8 46/108/8 45/103/8
f 20/109/17 19/25/17 33/51/17
f 20/109/17 33/54/17 36/60/17
f 27/89/18 26/35/18 45/103/18
f 27/89/18 45/104/18 44/99/18
f 41/102/19 46/108/19 43/110/19
f 41/102/19 43/111/19 42/82/19
f 47/112/20 48/113/20 30/43/20
f 47/112/20 30/47/20 31/114/20
f 40/115/21 28/37/21 16/116/21
f 40/115/21 16/117/21 34/57/21
f 17/118/22 22/70/22 8/31/22
f 17/118/22 8/96/22 11/23/22
f 48/119/23 10/13/23 29/38/23
f 48/119/23 29/40/23 30/43/23
f 5/6/13 39/98/13 6/11/13
f 47/112/24 31/120/24 18/55/24
f 47/112/24 18/53/24 21/28/24
f 38/73/25 29/40/25 9/66/25
f 10/121/25 9/122/25 29/38/25
f 43/84/26 46/108/26 25/123/26
f 43/84/26 25/33/26 24/87/26
f 4/124/2 3/4/2 48/125/2
f 3/126/2 40/79/2 48/125/2
f 10/121/2 48/113/2 40/78/2
f 34/127/2 10/13/2 40/78/2
f 11/14/2 10/13/2 34/57/2
f 48/119/2 47/128/2 4/5/2
f 35/129/2 4/76/2 47/130/2
f 36/131/2 35/59/2 47/130/2
f 36/131/2 47/128/2 21/28/2
f 36/131/2 21/132/2 20/26/2
